<svg version="1.1" xmlns="http://www.w3.org/2000/svg" xmlns:xlink="http://www.w3.org/1999/xlink" width="300" height="44" viewBox="0,0,256,37.5375"><g fill="#1f2937" fill-rule="evenodd" stroke="none" stroke-width="1" stroke-linecap="butt" stroke-linejoin="miter" stroke-miterlimit="10" stroke-dasharray="" stroke-dashoffset="0" font-family="none" font-weight="none" font-size="none" text-anchor="none" style="mix-blend-mode: normal"><g transform="translate(0,0.31107) scale(0.85333,0.85333)"><path d="M0.44527,39.5347c0.6679,-0.278 1.05751,-0.3892 1.05751,-2.5578v-23.5206c0.05566,-2.6691 -0.77922,-2.3354 -1.50278,-2.8915h6.84601c-0.38961,0.278 -1.55844,0.0556 -1.55844,2.8915v8.9523h2.89425c0.44527,-3.6699 1.94808,-6.6726 4.50838,-8.9523c2.7272,-2.4466 6.1224,-3.61433 10.2968,-3.61433c4.564,0 8.2375,1.44573 11.0204,4.33713c2.6716,2.7246 3.9518,6.1721 3.9518,10.398c0,4.4484 -1.2245,8.1739 -3.7291,11.1209c-2.7273,3.225 -6.5121,4.8932 -11.2431,4.8932c-4.6197,0 -8.2931,-1.6125 -11.0761,-4.782c-2.61591,-2.947 -3.89606,-6.5613 -3.89606,-10.7872h-2.72727v11.8993c0,3.0026 1.11317,2.5578 1.55844,2.8914c-2.282,0 -4.56401,0 -6.84601,0zM125.733,32.9178l14.137,-20.5736c0.779,-1.1677 -0.835,-0.3337 -1.558,-1.7238h6.846c-0.947,1.5013 -1.559,0.5561 -1.559,2.8359v23.3538c0,2.6134 0.724,1.7793 1.559,2.8358h-6.846c0.668,-1.2233 1.558,-0.3892 1.558,-2.8358v-19.684l-14.137,20.6849c-0.39,0.8896 1.002,1.2233 1.391,1.8349h-6.679c0.946,-1.0565 1.559,-0.3336 1.559,-2.8358v-23.3538c0,-2.5578 -0.891,-1.8906 -1.559,-2.8359h6.846c-0.556,1.0009 -1.558,0.2781 -1.558,2.8359zM17.0315,1.39011c0.3897,0 0.7793,0.33363 0.7793,0.77846c0,0.16681 -0.0557,0.33363 -0.1114,0.44483c0.6679,0.50044 1.5028,0.94528 2.3377,1.2789c-0.1113,1.61253 0.3896,2.4466 1.1132,2.4466c0.7235,0 0.5566,-1.16769 -0.167,-3.28066c0.6679,-0.38923 1.2802,-0.94527 1.6698,-1.66813c-0.2227,-0.11121 -0.3896,-0.33363 -0.3896,-0.66725c0,-0.38923 0.3339,-0.72286 0.7235,-0.72286c0.3896,0 0.7792,0.33363 0.7792,0.72286c0,0.27802 -0.1669,0.55604 -0.4452,0.66725c0.4452,0.66725 1.0018,1.22329 1.6697,1.66813c-0.7235,2.11297 -0.8905,3.22505 -0.167,3.28066c0.7236,0 1.1689,-0.83407 1.1132,-2.4466c0.8906,-0.33362 1.6698,-0.77846 2.3933,-1.3345c-0.1113,-0.11121 -0.1113,-0.27802 -0.1113,-0.44483c0,-0.38923 0.334,-0.77847 0.7792,-0.77847c0.3897,0 0.7793,0.33363 0.7793,0.77847c0,0.38923 -0.334,0.77846 -0.7793,0.77846l-1.6697,4.17032h0.4453v0.88967h-0.501v1.11209c-2.6716,-0.55604 -5.8998,-0.55604 -8.5714,0v-1.11209h-0.4453v-0.88967h0.4453l-1.6698,-4.17032c-0.3896,0 -0.7792,-0.33363 -0.7792,-0.77846c0,-0.38923 0.334,-0.72286 0.7792,-0.72286zM278.182,10.5648h13.414c2.226,0 4.23,0.7229 5.899,2.2242c1.67,1.5013 2.505,3.3363 2.505,5.616c0,2.6691 -0.946,4.8932 -2.894,6.6726c-1.503,1.3901 -3.674,2.5578 -6.568,3.6142c-2.338,0.7785 -4.675,1.5014 -7.013,2.2798v5.8941c0,2.3354 1.002,1.6125 1.558,2.8914h-6.846c0.724,-1.3901 1.559,-0.5004 1.559,-2.8914v-23.4094c-0.056,-2.391 -1.225,-1.3902 -1.614,-2.8915zM283.469,13.2894v15.0132c2.95,-0.7784 4.843,-1.3345 5.622,-1.6125c2.115,-0.7785 3.673,-1.7793 4.731,-2.8358c1.336,-1.3901 1.948,-3.1695 1.948,-5.338c0,-1.557 -0.668,-2.7803 -2.004,-3.7255c-1.336,-0.9453 -2.838,-1.4458 -4.508,-1.4458h-5.789zM252.078,10.5648h24.378v5.2824c-1.781,-0.5004 -0.668,-2.669 -3.84,-2.669h-6.456v23.6319c0,2.2798 0.445,1.5569 1.558,2.8914h-6.846c0.835,-1.1677 1.558,-0.5004 1.558,-2.8914v-23.5763h-6.456c-3.228,0 -2.505,2.4466 -3.84,2.669v-5.338zM227.199,36.8657v-23.4094c0,-2.4466 -0.557,-1.557 -1.559,-2.8915h6.846c-0.835,1.5569 -1.558,0.5005 -1.558,2.8915v8.9523h13.914v-8.9523c0,-2.6691 -0.668,-1.3902 -1.558,-2.8915h6.846c-0.946,1.5569 -1.559,0.3337 -1.559,2.8915v23.4094c0,2.5578 0.668,1.7237 1.559,2.8914h-6.846c0.612,-1.1677 1.558,-0.3336 1.558,-2.8914v-11.9549h-13.914v11.8993c0,2.391 0.89,1.7793 1.558,2.8914h-6.846c0.612,-1.3345 1.781,-0.5004 1.559,-2.8358zM199.035,10.5648h23.043v5.2824c-1.67,-1.2233 -0.612,-2.669 -3.841,-2.669h-13.914v9.1748h10.408c2.171,0 1.503,-0.8897 3.117,-1.9462v6.5057c-1.559,-0.9453 -0.445,-1.9461 -3.117,-1.9461h-10.408v12.0661h14.694c3.618,0 2.282,-1.2789 4.508,-2.8914v5.616h-24.49c0.39,-1.2233 1.559,-0.4448 1.559,-2.8914v-23.4094c0,-2.2798 -1.225,-1.3346 -1.559,-2.8915zM173.098,36.8657v-23.4094c0,-2.3354 -0.779,-1.2789 -1.558,-2.8915h6.846c-0.891,1.7794 -1.559,0.6117 -1.559,2.8915v23.5762h13.804v-23.5762c0,-2.2798 -0.835,-1.2233 -1.559,-2.8915h6.846c-0.89,1.7794 -1.558,0.6117 -1.558,2.8915v23.5762h2.393v6.2277c-2.56,-1.3901 0.279,-3.5031 -4.675,-3.5031h-20.594c0.612,-1.0565 1.837,-0.3892 1.614,-2.8914zM147.273,10.5648h13.413c2.227,0 4.231,0.7229 5.9,2.2242c1.67,1.5013 2.505,3.3363 2.505,5.616c0,2.6691 -0.946,4.8932 -2.894,6.6726c-1.503,1.3901 -3.674,2.5578 -6.568,3.6142c-2.338,0.7785 -4.675,1.5014 -7.013,2.2798v5.8941c0,2.3354 0.557,1.5013 1.558,2.8914h-6.846c0.947,-1.2789 1.559,-0.4448 1.559,-2.8914v-23.4094c-0.056,-2.3354 -0.946,-1.2233 -1.614,-2.8915zM152.56,13.2894v15.0132c2.95,-0.7784 4.843,-1.3345 5.622,-1.6125c2.115,-0.7785 3.673,-1.7793 4.731,-2.8358c1.336,-1.3901 1.948,-3.1695 1.948,-5.338c0,-1.557 -0.668,-2.7803 -2.004,-3.7255c-1.336,-0.9453 -2.838,-1.4458 -4.508,-1.4458h-5.789zM118.108,39.7015h-6.735c0.501,-0.8897 1.614,-0.1112 1.391,-2.0574c0,-0.1668 -0.055,-0.278 -0.111,-0.4448l-7.625,-20.7404l-7.848,20.4068c-0.1114,0.2224 -0.1114,0.4448 -0.1114,0.6116c-0.3896,1.9462 0.3897,1.0565 1.5028,2.1686h-5.6772c0.4453,-0.556 0.4453,-0.4448 1.3915,-2.8914l8.9613,-23.187c0.111,-0.2781 0.111,-0.5005 0.111,-0.6673c0.278,-2.1686 -0.612,-1.4457 -1.224,-2.391h4.898l9.684,26.4677c0.724,2.3354 0.501,1.7793 1.392,2.7246zM67.6252,10.5648h23.0427v5.2824c-1.0575,-0.6672 -0.5566,-2.669 -3.8404,-2.669h-13.9147v9.1748h10.4082c2.3376,0 2.2263,-1.0565 3.1169,-1.9462v6.5057c-1.1132,-1.0565 -0.7793,-1.9461 -3.1169,-1.9461h-10.4082v12.0661h14.6939c4.0074,0 3.0055,-1.3345 4.5083,-2.8914v5.616h-24.4898c0.2227,-0.5004 1.5585,-0.1668 1.5585,-2.8914v-23.4094c-0.0557,-2.6691 -1.0019,-2.2798 -1.5585,-2.8915zM40.2412,10.5648h15.974c1.8367,0 3.4508,0.7229 4.7867,2.113c1.3358,1.3901 2.0037,3.0026 2.0037,4.8376c0,1.3901 -0.3896,2.6134 -1.2245,3.6699c-0.7792,1.0564 -1.9481,1.8905 -3.4509,2.3909c2.0038,0.3893 3.6179,1.3346 4.898,2.8915c1.2801,1.5569 1.8924,3.2806 1.8924,5.1712c0,2.3354 -1.0575,4.2815 -3.2282,5.894c-2.0037,1.5014 -4.2301,2.2242 -6.679,2.2242h-15.0279c0.167,-0.2224 0.9462,-0.8341 1.1689,-1.4457c0.1669,-0.4448 0.3339,-0.9453 0.3339,-1.4457v-23.4094c0.0557,-1.0009 -0.8349,-2.1686 -1.4471,-2.8915zM45.5288,12.9002v9.5084h9.0167c1.3358,0 2.3933,-0.4449 3.2282,-1.3902c0.8348,-0.8896 1.2801,-2.0573 1.2801,-3.503c0,-1.4457 -0.5566,-2.6134 -1.7254,-3.3919c-1.1132,-0.8341 -2.5047,-1.2233 -4.0074,-1.2233zM45.5288,24.9108v12.0661h8.961c1.6698,0 3.1169,-0.6117 4.4527,-1.7793c1.3358,-1.2233 1.948,-2.6134 1.948,-4.3372c0,-1.6125 -0.6122,-3.0026 -1.8924,-4.1703c-1.2801,-1.1677 -2.7829,-1.7793 -4.4526,-1.7793zM23.0427,37.6998c3.7291,0 6.512,-1.2789 8.4044,-3.7811c1.6141,-2.1686 2.3933,-5.1712 2.3933,-8.9523c0,-3.5587 -0.7792,-6.4501 -2.3376,-8.6187c-1.8368,-2.5578 -4.6753,-3.7811 -8.4045,-3.7811c-3.5621,0 -6.2894,1.2789 -8.2374,3.7811c-1.7255,2.2242 -2.5603,5.1156 -2.5603,8.6187c0,3.5586 0.7792,6.4501 2.3933,8.7298c1.8367,2.6134 4.6196,4.0036 8.3488,4.0036z"></path></g></g></svg>