<svg xmlns="http://www.w3.org/2000/svg" width="779" height="480" viewBox="0 0 779 480" version="1.1"><path d="M 475.500 1.122 C 434.656 4.985, 399.549 20.393, 374.461 45.467 C 332.884 87.019, 321.121 137.759, 341.015 189.744 C 344.601 199.113, 345.696 200.505, 345.174 195.029 C 344.975 192.937, 345.337 188.692, 345.980 185.595 L 347.149 179.964 353.614 190.732 C 357.170 196.654, 360.780 202.175, 361.637 203 C 362.494 203.825, 361.103 201.235, 358.546 197.245 C 345.408 176.743, 338.862 152.118, 341.020 131.309 C 343.302 109.303, 348.606 82.979, 351.065 81.460 C 351.567 81.150, 351.728 81.707, 351.423 82.698 C 351.118 83.689, 352.476 81.171, 354.440 77.102 C 374.635 35.276, 415.014 10.041, 472.974 3.026 C 485.579 1.500, 513.639 1.783, 528.460 3.586 C 564.587 7.981, 596.160 17.545, 630.500 34.494 C 650.946 44.586, 664.944 52.999, 680 64.244 C 720.309 94.351, 748.366 129.144, 763.930 168.323 C 767.901 178.320, 772.723 196.822, 773.488 205 C 773.823 208.575, 774.277 213.525, 774.497 216 C 774.893 220.459, 773.518 238.189, 772.402 243 C 772.084 244.375, 771.592 246.625, 771.310 248 C 770.505 251.920, 766.143 262.825, 762.309 270.500 C 753.155 288.824, 734.170 307.965, 716 317.190 C 714.625 317.888, 713.275 318.694, 713 318.981 C 712.316 319.695, 708.701 321.367, 701 324.530 C 697.425 325.998, 693.375 327.788, 692 328.508 C 689.858 329.629, 680.047 332.500, 674.893 333.514 C 674.010 333.688, 670.185 334.725, 666.393 335.818 C 662.602 336.911, 656.800 338.102, 653.500 338.465 C 650.200 338.827, 646.150 339.298, 644.500 339.511 C 620.147 342.655, 593.243 341.935, 570 337.517 C 555.891 334.835, 535.995 329.294, 536.004 328.049 C 536.012 326.879, 540.015 321, 540.804 321 C 541.262 321, 547.681 322.568, 555.069 324.484 C 590.126 333.577, 628.668 335.797, 658.209 330.426 C 673.485 327.648, 700.270 318.937, 698.618 317.284 C 698.385 317.051, 696.463 317.739, 694.347 318.813 C 689.437 321.306, 673.819 325.553, 660.704 327.962 C 625.095 334.502, 591.160 332.739, 553 322.367 C 544.497 320.056, 543.054 319.314, 539.250 315.296 C 536.859 312.770, 535 309.830, 535 308.573 C 535 305.640, 539.438 294.774, 540.470 295.183 C 540.910 295.357, 541.654 294.465, 542.122 293.199 C 542.734 291.545, 542.648 291.099, 541.817 291.613 C 541.009 292.112, 540.894 291.751, 541.435 290.414 C 543.618 285.024, 546.946 274.613, 546.598 274.264 C 546.379 274.045, 545.643 275.584, 544.963 277.683 C 544.283 279.782, 540.675 288.475, 536.945 297 C 533.214 305.525, 529.868 313.673, 529.508 315.108 C 529.069 316.859, 529.706 319.739, 531.450 323.881 C 533.473 328.687, 533.812 330.483, 532.987 332.024 C 532.406 333.111, 532.095 334, 532.298 334 C 532.501 334, 539.604 335.551, 548.083 337.446 C 572.622 342.932, 589.192 345.070, 612.082 345.705 C 650.145 346.760, 681.034 341.109, 708.276 328.107 C 735.779 314.980, 758.645 292.018, 768.649 267.479 C 775.495 250.688, 776.362 245.715, 776.405 223 C 776.439 205.027, 776.163 201.330, 774.166 193.010 C 765.774 158.042, 747.011 125.740, 717.018 94.627 C 678.726 54.904, 623.911 23.550, 568 9.389 C 552.957 5.579, 552.891 5.565, 541 3.506 C 521.485 0.127, 495.869 -0.805, 475.500 1.122 M 472.301 10.492 C 451.510 13.670, 429.569 20.908, 415.545 29.214 C 411.719 31.480, 408.032 33.333, 407.350 33.333 C 406.669 33.333, 406.199 33.821, 406.306 34.417 C 406.412 35.012, 405.730 35.440, 404.789 35.368 C 403.848 35.295, 403.173 35.745, 403.289 36.368 C 403.405 36.990, 402.773 37.507, 401.886 37.515 C 399.643 37.536, 396.885 40.005, 397.675 41.283 C 398.075 41.931, 397.715 42.104, 396.743 41.732 C 394.444 40.849, 378.785 57.276, 379.686 59.624 C 380.124 60.765, 379.960 61.093, 379.188 60.616 C 377.738 59.720, 370.621 70.577, 371.609 72.177 C 372.013 72.830, 371.865 73.034, 371.259 72.660 C 369.979 71.869, 368.735 74.728, 369.657 76.340 C 370.022 76.978, 369.940 77.154, 369.475 76.731 C 368.491 75.837, 363.771 86.820, 364.577 88.125 C 364.875 88.606, 364.681 89, 364.147 89 C 363.613 89, 362.858 90.912, 362.470 93.250 C 362.082 95.588, 361.562 98.400, 361.314 99.500 C 359.774 106.348, 359.505 110.075, 359.548 124 C 359.617 146.650, 363.934 163.924, 375.255 186.853 C 380.259 196.987, 393.243 217.547, 398.397 223.500 C 399.826 225.150, 397.140 220.650, 392.427 213.500 C 379.015 193.151, 368.395 170.025, 364.116 151.848 C 355.288 114.355, 364.259 78.819, 389.202 52.468 C 399.329 41.769, 407.701 35.492, 421 28.625 C 445.970 15.732, 474.342 10.158, 509 11.338 C 552.128 12.805, 594.669 24.887, 627.655 45.037 C 652.800 60.397, 672.277 74.760, 688.364 89.806 C 701.848 102.418, 704.299 104.145, 693.269 93.262 C 681.701 81.849, 667.059 69.601, 653.500 59.997 C 631.650 44.521, 631.585 44.469, 637.750 47.474 C 644.077 50.559, 644.620 50.139, 638.750 46.701 C 611.141 30.534, 576.077 18.077, 541 11.974 C 524.769 9.150, 486.483 8.324, 472.301 10.492 M 482.768 14.725 C 484.565 14.947, 487.265 14.943, 488.768 14.715 C 490.271 14.486, 488.800 14.304, 485.500 14.310 C 482.200 14.315, 480.971 14.502, 482.768 14.725 M 505.750 14.706 C 506.988 14.944, 509.012 14.944, 510.250 14.706 C 511.488 14.467, 510.475 14.272, 508 14.272 C 505.525 14.272, 504.512 14.467, 505.750 14.706 M 480 16.529 C 479.175 16.692, 474.538 17.365, 469.695 18.024 C 464.852 18.684, 461.093 19.426, 461.340 19.674 C 461.588 19.921, 465.550 19.586, 470.145 18.929 C 474.740 18.272, 486.375 17.419, 496 17.033 L 513.500 16.331 497.500 16.282 C 488.700 16.254, 480.825 16.366, 480 16.529 M 517.750 17.706 C 518.987 17.944, 521.013 17.944, 522.250 17.706 C 523.487 17.467, 522.475 17.272, 520 17.272 C 517.525 17.272, 516.513 17.467, 517.750 17.706 M 536.500 18.057 C 541.566 19.105, 545.659 19.058, 541.500 18 C 539.850 17.580, 537.150 17.235, 535.500 17.233 C 532.978 17.231, 533.137 17.362, 536.500 18.057 M 558.500 24.570 C 561.250 25.335, 563.950 25.923, 564.500 25.876 C 566.192 25.731, 557.629 23.153, 555.500 23.166 C 554.400 23.173, 555.750 23.805, 558.500 24.570 M 565 23.913 C 566.375 24.402, 573.125 26.616, 580 28.832 C 586.875 31.048, 594.300 33.652, 596.500 34.620 C 598.700 35.587, 600.725 36.425, 601 36.481 C 601.275 36.538, 602.976 37.371, 604.779 38.333 C 606.583 39.295, 608.496 39.812, 609.029 39.482 C 609.563 39.152, 610 39.334, 610 39.887 C 610 40.440, 612.714 41.882, 616.031 43.091 C 619.348 44.301, 622.299 45.675, 622.590 46.145 C 622.880 46.615, 623.758 47, 624.540 47 C 625.321 47, 628.423 48.575, 631.433 50.500 C 634.442 52.425, 637.263 53.988, 637.702 53.974 C 640.478 53.885, 619.053 42, 616.117 42 C 615.044 42, 614.013 41.539, 613.825 40.976 C 613.134 38.901, 575.378 25.195, 566 23.614 C 563.184 23.139, 562.989 23.197, 565 23.913 M 389.433 48.250 C 384.013 53.887, 377.367 61.659, 381.095 58 C 385.266 53.907, 396.273 42, 395.885 42 C 395.642 42, 392.738 44.813, 389.433 48.250 M 383.340 78.783 C 384.584 80.184, 384.954 81.569, 384.483 83.054 C 384.010 84.543, 384.142 85.030, 384.893 84.566 C 386.860 83.350, 386.140 79.144, 383.750 77.890 C 381.534 76.727, 381.528 76.740, 383.340 78.783 M 373.501 81.178 C 371.979 82.375, 369.668 85.763, 368.366 88.706 C 365.468 95.259, 365.339 97.111, 368.016 93.707 C 370.056 91.113, 376.593 88.260, 377.779 89.446 C 378.134 89.801, 377.888 90.950, 377.233 91.999 C 376.480 93.205, 376.402 94.130, 377.020 94.513 C 377.559 94.846, 378 94.694, 378 94.176 C 378 92.998, 381.834 91.922, 382.455 92.927 C 383.097 93.965, 402.642 96.351, 404.541 95.623 C 405.493 95.257, 405.849 95.435, 405.452 96.078 C 405.093 96.659, 405.407 97.019, 406.150 96.878 C 406.892 96.738, 408.962 96.933, 410.750 97.311 C 418.574 98.969, 420.538 99.148, 419 98.062 C 417.877 97.269, 418.379 97.155, 421 97.608 C 439.563 100.821, 467.914 110.949, 482.255 119.492 C 485.604 121.487, 487.769 122.426, 487.066 121.579 C 485.939 120.222, 473.200 113.667, 455.792 105.488 C 443.989 99.943, 447.184 98.258, 462.333 102.038 C 478.789 106.143, 502.179 119.862, 514.892 132.866 C 526.587 144.827, 535.889 160.947, 538.627 174 C 542.592 192.895, 536.166 218.110, 521.170 242.500 C 518.126 247.450, 515.359 251.725, 515.020 252 C 514.681 252.275, 513.322 254.075, 512 256 C 510.678 257.925, 509.311 259.725, 508.963 260 C 508.614 260.275, 507.918 261.234, 507.415 262.131 C 505.859 264.906, 499.797 272.149, 493 279.353 C 489.425 283.142, 485.150 287.791, 483.500 289.684 C 479.546 294.219, 475.392 298.476, 469.404 304.127 C 466.707 306.673, 463.260 310.048, 461.745 311.627 C 457.285 316.278, 436 333.518, 436 332.480 C 436 332.173, 435.032 332.824, 433.849 333.926 C 432.665 335.029, 431.362 335.724, 430.953 335.471 C 430.544 335.218, 429.952 335.684, 429.636 336.506 C 429.321 337.328, 428.171 338, 427.081 338 C 425.991 338, 424.740 338.563, 424.300 339.250 C 423.435 340.602, 417.608 344.041, 412 346.510 C 410.075 347.357, 407.719 348.489, 406.764 349.025 C 405.809 349.561, 404.121 350, 403.014 350 C 401.906 350, 401 350.450, 401 351 C 401 351.550, 400.410 352, 399.688 352 C 398.966 352, 396.427 352.941, 394.046 354.092 C 391.664 355.243, 388.594 356.387, 387.223 356.636 C 385.852 356.885, 383.446 357.752, 381.876 358.564 C 380.306 359.376, 378.789 360.026, 378.506 360.009 C 378.222 359.991, 376.305 360.699, 374.245 361.580 C 372.185 362.462, 370.050 363.297, 369.500 363.435 C 364.937 364.584, 363 365.316, 363 365.890 C 363 366.414, 355.603 369.098, 353 369.518 C 351.939 369.689, 347.407 371.164, 345.500 371.960 C 337.771 375.182, 333.028 376.880, 330 377.509 C 328.075 377.908, 326.050 378.507, 325.500 378.839 C 324.950 379.172, 324.050 379.536, 323.500 379.648 C 322.950 379.760, 317.775 381.508, 312 383.531 C 279.089 395.063, 280.148 394.792, 261.500 396.467 L 247.500 397.724 264 397.948 C 273.969 398.083, 279.467 398.485, 277.889 398.962 C 274.933 399.857, 266.358 404.612, 263.813 406.767 C 262.885 407.553, 261.648 407.900, 261.063 407.539 C 260.478 407.178, 260 407.323, 260 407.862 C 260 408.400, 258.681 409.131, 257.069 409.485 C 255.457 409.839, 253.602 410.775, 252.947 411.564 C 252.291 412.354, 250.937 413, 249.937 413 C 248.936 413, 247.825 413.474, 247.467 414.053 C 247.110 414.632, 246.295 414.916, 245.658 414.683 C 245.021 414.451, 243.825 414.817, 243 415.496 C 240.697 417.393, 235.674 418.391, 236.490 416.790 C 236.852 416.081, 236.552 416.203, 235.824 417.062 C 234.114 419.079, 231.453 420.101, 226.568 420.616 C 224.405 420.844, 222.380 421.308, 222.068 421.647 C 220.828 422.993, 263.079 420.993, 276 419.094 C 357.197 407.160, 441.400 370.564, 491.573 325.401 C 524.435 295.820, 543.139 267.566, 549.103 238.500 C 550.866 229.907, 550.555 208.282, 548.514 197.500 C 547.576 192.550, 546.638 187.594, 546.428 186.486 C 546.218 185.379, 545.366 182.229, 544.534 179.486 C 542.653 173.285, 542.641 171.749, 544.500 175 C 546.652 178.764, 546.286 176.313, 544.073 172.136 C 543.014 170.136, 540.095 164.067, 537.589 158.648 C 527.069 135.911, 514.753 124.308, 486.500 110.514 C 463.876 99.468, 442.482 93.966, 420.328 93.495 C 413.084 93.341, 406.751 92.964, 406.255 92.658 C 404.508 91.578, 390.449 89.002, 386.300 89.001 C 383.346 89, 381.810 89.517, 381.125 90.742 C 380.589 91.700, 379.838 92.171, 379.456 91.789 C 378.262 90.595, 381.725 88.005, 384.679 87.884 C 386.367 87.815, 386.798 87.584, 385.751 87.311 C 384.789 87.059, 383.714 85.649, 383.363 84.177 C 382.008 78.496, 378.332 77.378, 373.501 81.178 M 315 91.035 C 294.326 93.864, 291.277 94.417, 270 99.194 C 176.852 120.108, 89.319 167.550, 41.686 222.938 C 21.399 246.528, 9.009 271.900, 6.004 296 C 3.992 312.143, 7.341 327.541, 16.055 342.208 C 21.868 351.993, 33.977 364.455, 41.230 368.116 C 44.403 369.718, 47 370.872, 47 370.681 C 47 370.489, 44.533 368.633, 41.518 366.557 C 34.187 361.508, 23.627 350.172, 20.492 343.985 C 10.041 323.360, 7.171 294.874, 13.414 273.728 C 16.368 263.724, 25.578 244.621, 27.018 245.511 C 27.557 245.844, 27.709 245.406, 27.366 244.511 C 26.969 243.478, 27.237 243.020, 28.127 243.209 C 28.959 243.385, 29.383 242.804, 29.203 241.734 C 29.039 240.763, 29.333 240.088, 29.857 240.234 C 31.190 240.607, 37.204 232.139, 36.460 230.936 C 36.125 230.394, 36.291 230.074, 36.828 230.225 C 37.366 230.376, 41.450 226.148, 45.904 220.829 C 68.748 193.547, 108.364 164.342, 152.500 142.246 C 204.218 116.353, 271.881 96.198, 324.750 90.936 C 331.488 90.265, 337 89.406, 337 89.025 C 337 88.042, 336.600 88.079, 315 91.035 M 367.783 98.750 C 366.944 99.713, 365.684 101.625, 364.983 103 C 363.763 105.394, 363.789 105.432, 365.604 103.902 C 366.647 103.023, 368.288 102.025, 369.250 101.683 C 370.212 101.342, 371 100.149, 371 99.031 C 371 96.537, 369.805 96.432, 367.783 98.750 M 692.090 104.250 C 693.877 106.862, 695.504 109, 695.705 109 C 696.384 109, 694.116 105.519, 691.470 102.500 C 689.480 100.229, 689.630 100.655, 692.090 104.250 M 368.580 104.870 C 368.107 105.636, 369.271 106.051, 372.191 106.157 L 376.500 106.314 371.500 107.032 C 368.740 107.428, 378.371 107.743, 393 107.734 C 420.525 107.717, 427.141 108.354, 448.228 113.051 C 460.105 115.696, 462.155 114.075, 450.821 111 C 435.891 106.949, 418.114 104.892, 392.890 104.297 C 375.875 103.895, 369.084 104.055, 368.580 104.870 M 393.750 106.732 C 396.087 106.943, 399.913 106.943, 402.250 106.732 C 404.587 106.522, 402.675 106.349, 398 106.349 C 393.325 106.349, 391.413 106.522, 393.750 106.732 M 267 109.598 C 261.775 110.954, 254.800 112.738, 251.500 113.563 C 214.523 122.803, 168.671 141.426, 136.706 160.186 C 134.069 161.734, 131.685 163, 131.407 163 C 131.129 163, 128.337 164.722, 125.201 166.826 C 122.066 168.930, 113.650 174.536, 106.500 179.284 C 88.226 191.420, 78.458 199.402, 63.487 214.434 C 48.184 229.799, 40.630 239.916, 31.703 257 C 22.605 274.414, 20.420 282.106, 19.591 299.652 C 18.845 315.417, 19.506 319.753, 24.177 329.744 C 35.359 353.661, 64.779 372.575, 105.398 381.959 C 128.687 387.339, 161.678 389.753, 189.809 388.135 C 209.830 386.983, 229.351 385.017, 228.566 384.232 C 228.301 383.968, 222.779 384.370, 216.293 385.126 C 198.229 387.231, 146.786 386.967, 132 384.694 C 109.593 381.249, 85.525 374.353, 72.018 367.509 C 62.141 362.504, 49.607 353.808, 42.806 347.242 C 29.084 333.995, 23.109 320.582, 22.472 301.592 C 22.266 295.475, 22.426 292.070, 22.828 294 C 23.497 297.214, 23.665 296.852, 24.880 289.572 C 25.607 285.212, 26.770 279.760, 27.463 277.456 C 28.777 273.091, 40.888 253.555, 41.748 254.415 C 42.019 254.685, 45.740 250.090, 50.017 244.203 C 54.295 238.316, 62.541 228.805, 68.343 223.067 C 74.145 217.328, 78.689 212.305, 78.441 211.904 C 78.193 211.502, 81.929 208.138, 86.745 204.427 C 97.757 195.939, 97.335 196.325, 96.316 195.695 C 95.251 195.037, 78.630 207.412, 68.951 216.068 C 60.913 223.256, 57.677 225.174, 62.946 219.628 C 67.712 214.610, 65.579 215.062, 60.038 220.243 C 57.542 222.577, 58.650 221.194, 62.500 217.170 C 83.490 195.232, 110.002 176.362, 139.238 162.553 C 150.830 157.077, 156.885 154.807, 154 157.019 C 152.797 157.940, 153.095 158.066, 155.500 157.654 C 157.150 157.371, 159.400 156.857, 160.500 156.511 C 161.600 156.165, 160.813 156.820, 158.750 157.965 C 156.688 159.111, 155 160.214, 155 160.418 C 155 161.056, 181.196 150.355, 187.557 147.118 C 194.564 143.554, 238.984 128.675, 259.500 123.020 C 272.938 119.317, 282.388 116.219, 280.699 116.070 C 277.621 115.800, 228.475 129.605, 224.010 131.995 C 222.783 132.651, 218.791 134.028, 215.139 135.054 C 205.905 137.649, 182.839 146.642, 182.020 147.968 C 181.249 149.215, 170.983 153.316, 170.311 152.645 C 170.069 152.402, 172.153 151.446, 174.943 150.519 C 177.733 149.592, 179.781 148.455, 179.495 147.992 C 179.209 147.529, 185.843 144.472, 194.238 141.197 C 228.650 127.774, 259.864 118.531, 299 110.175 C 301.475 109.647, 302.600 109.177, 301.500 109.132 C 300.400 109.086, 297.475 109.528, 295 110.114 C 290.897 111.085, 268 112.234, 268 111.468 C 268 111.289, 270.475 110.422, 273.500 109.543 C 276.525 108.664, 279 107.732, 279 107.472 C 279 106.663, 276.811 107.051, 267 109.598 M 367.500 112.936 C 365.850 113.321, 375.750 113.933, 389.500 114.295 C 403.250 114.658, 416.300 115.243, 418.500 115.597 C 420.700 115.951, 422.196 115.919, 421.824 115.527 C 419.293 112.859, 376.568 110.821, 367.500 112.936 M 721.226 128 C 727.800 137.370, 732 144.794, 732 147.044 C 732 148.120, 732.648 149, 733.441 149 C 736.070 149, 736.287 146.811, 733.873 144.641 C 732.564 143.463, 730.668 140.716, 729.660 138.535 C 728.652 136.354, 726.462 132.846, 724.793 130.739 C 720.827 125.731, 721.829 124.756, 725.885 129.676 C 727.598 131.755, 729 132.991, 729 132.424 C 729 131.857, 727.425 129.866, 725.500 128 C 723.575 126.134, 722 124.999, 722 125.478 C 722 125.957, 720.800 125.258, 719.333 123.924 C 717.466 122.227, 718.034 123.450, 721.226 128 M 325.511 145.092 C 326.076 164.955, 331.275 187.331, 338.385 200.500 C 343.035 209.112, 353.228 226.023, 354.090 226.556 C 354.590 226.865, 355 227.597, 355 228.181 C 355 228.812, 354.304 228.687, 353.289 227.872 C 352.155 226.962, 352.346 227.595, 353.857 229.750 C 355.111 231.537, 356.421 233, 356.768 233 C 357.116 233, 356.860 232.460, 356.200 231.800 C 354.171 229.771, 354.874 228.576, 356.976 230.478 C 358.063 231.462, 356.303 228.269, 353.066 223.383 C 337.064 199.232, 328.033 172.787, 326.018 144.183 L 325.125 131.500 325.511 145.092 M 201 148.903 C 188.328 153.619, 188 153.801, 188 156.090 C 188 158.204, 188.033 158.208, 190.750 156.388 C 192.262 155.375, 197.325 152.632, 202 150.292 C 211.838 145.368, 211.555 144.975, 201 148.903 M 515.026 146.193 C 515.012 146.574, 515.919 148.443, 517.042 150.346 C 520.458 156.136, 526.005 174.203, 523.076 170 C 521.580 167.854, 521.758 169.827, 523.623 176.068 C 527.351 188.546, 522.657 210.917, 512.339 229.847 C 499.039 254.249, 472.542 281.404, 439.522 304.477 C 422.543 316.340, 408.867 324.220, 385.750 335.459 C 353.334 351.219, 327.230 361.025, 291 371.050 C 281.375 373.713, 274.175 375.914, 275 375.941 C 277.969 376.038, 307.768 367.797, 323.785 362.449 C 415.028 331.987, 490.476 278.122, 517.009 224.500 C 524.096 210.177, 526.899 200.687, 527.695 188.316 C 528.601 174.233, 525.625 162.098, 518.536 150.971 C 516.619 147.962, 515.040 145.812, 515.026 146.193 M 739.692 150.452 C 741.436 153.307, 741.435 153.381, 739.654 152.698 C 732.642 150.007, 732.649 149.962, 738.131 161.582 C 751.652 190.248, 756.904 208.237, 757.668 228.500 C 758.285 244.859, 756.993 252.708, 751.650 265.067 C 749.764 269.430, 748.418 273, 748.659 273 C 749.918 273, 756.329 257.195, 758.600 248.491 C 760.809 240.027, 761.216 236.283, 761.265 224 C 761.347 203.213, 756.701 184.311, 746.531 164.062 C 744.004 159.030, 742.149 154.569, 742.408 154.148 C 742.668 153.728, 741.758 152.060, 740.385 150.442 L 737.889 147.500 739.692 150.452 M 168.750 159.689 C 167.787 159.941, 167 160.612, 167 161.180 C 167 161.752, 167.782 161.916, 168.750 161.548 C 170.002 161.071, 170.195 161.189, 169.427 161.964 C 167.748 163.657, 164.112 164.016, 163.266 162.572 C 162.763 161.715, 161.812 161.540, 160.500 162.062 C 158.887 162.705, 158.827 162.873, 160.191 162.930 C 163.057 163.049, 163.069 164.629, 160.216 166.072 C 153.073 169.683, 127.934 183.703, 123.026 186.813 C 114.414 192.269, 92.994 207.327, 93.344 207.678 C 94.557 208.890, 124.301 194.186, 138.065 185.570 C 142.154 183.010, 144.375 181.871, 143 183.040 C 141.625 184.209, 138.700 186.750, 136.500 188.687 L 132.500 192.209 135.907 190.498 C 137.781 189.556, 142.281 186.981, 145.907 184.774 C 149.533 182.568, 152.907 180.521, 153.405 180.227 C 153.902 179.932, 153.988 180.211, 153.595 180.845 C 153.203 181.480, 153.332 182, 153.882 182 C 154.432 182, 155.165 181.543, 155.510 180.984 C 155.856 180.425, 156.627 180.269, 157.224 180.638 C 157.877 181.042, 158.021 180.843, 157.585 180.138 C 157.187 179.494, 156.330 179.266, 155.681 179.630 C 153.295 180.970, 156.554 178.316, 161.854 174.604 C 164.799 172.541, 166.910 171.336, 166.545 171.927 C 165.436 173.721, 166.952 173.138, 170.567 170.381 C 172.455 168.941, 174 168.038, 174 168.375 C 174 169.625, 165.713 174.940, 164.721 174.327 C 164.154 173.977, 163.981 174.160, 164.335 174.733 C 164.695 175.316, 164.213 175.714, 163.239 175.637 C 162.246 175.559, 161.625 176.089, 161.791 176.873 C 161.963 177.684, 161.520 178.030, 160.708 177.718 C 159.952 177.428, 159.333 177.798, 159.333 178.541 C 159.333 179.549, 159.807 179.639, 161.195 178.896 C 162.218 178.348, 162.809 177.499, 162.506 177.010 C 162.204 176.521, 162.754 176.181, 163.728 176.254 C 164.703 176.327, 168.664 174.086, 172.531 171.272 C 179.630 166.109, 181.275 163.242, 178.831 160.296 C 177.799 159.053, 172.423 158.729, 168.750 159.689 M 141.387 169.410 C 137.474 171.246, 133.900 173.368, 133.445 174.124 C 132.771 175.243, 132.900 175.270, 134.139 174.268 C 134.977 173.590, 139.001 171.482, 143.081 169.583 C 147.162 167.684, 150.050 166.117, 149.500 166.101 C 148.950 166.085, 145.299 167.574, 141.387 169.410 M 166.500 178.077 C 154.838 183.856, 146 187.926, 146 187.519 C 146 187.323, 147.599 186.175, 149.553 184.967 C 151.507 183.760, 152.919 182.586, 152.692 182.359 C 151.886 181.552, 137.616 191.007, 137.398 192.491 C 137.085 194.626, 137.414 194.513, 146.105 189.500 C 153.767 185.081, 158.265 183.492, 154.441 186.555 C 152.582 188.045, 152.596 188.064, 154.778 187.005 C 156.031 186.397, 156.809 185.499, 156.506 185.010 C 156.204 184.521, 156.754 184.181, 157.729 184.255 C 159.079 184.356, 173.490 176.524, 175.917 174.370 C 177.342 173.105, 173.413 174.651, 166.500 178.077 M 546.083 178.080 C 546.037 178.399, 547.106 181.324, 548.458 184.580 C 549.809 187.836, 550.907 189.825, 550.896 189 C 550.877 187.502, 546.241 176.982, 546.083 178.080 M 92.307 193.357 C 79.414 203.033, 68.766 212.100, 69.471 212.804 C 69.739 213.073, 71.881 211.533, 74.230 209.383 C 76.578 207.233, 84.237 201.070, 91.250 195.689 C 102.405 187.128, 104.888 185, 103.722 185 C 103.569 185, 98.432 188.761, 92.307 193.357 M 128.761 195.800 C 124.886 197.927, 122.211 200.018, 122.467 200.718 C 122.712 201.388, 122.482 202.202, 121.956 202.527 C 121.430 202.852, 121 202.636, 121 202.046 C 121 201.457, 117.845 202.564, 113.989 204.506 C 110.132 206.448, 104.476 208.972, 101.420 210.116 C 98.363 211.260, 96.049 212.383, 96.278 212.611 C 96.632 212.965, 108.279 209.013, 114.414 206.457 C 115.906 205.836, 116.146 205.973, 115.504 207.080 C 115.015 207.922, 115.050 208.161, 115.590 207.667 C 116.090 207.208, 116.500 206.346, 116.500 205.750 C 116.500 205.154, 117.125 204.458, 117.889 204.204 C 118.811 203.896, 119.013 204.170, 118.490 205.016 C 118.057 205.717, 119.682 205.111, 122.101 203.668 C 124.520 202.225, 126.500 200.622, 126.500 200.106 C 126.500 199.589, 126.910 198.792, 127.410 198.333 C 127.939 197.849, 128.019 198.024, 127.601 198.750 C 126.723 200.276, 127.500 200.338, 130.094 198.950 C 131.173 198.372, 131.749 197.403, 131.373 196.795 C 130.963 196.132, 131.149 195.974, 131.838 196.400 C 133.367 197.345, 136.290 195.628, 136.586 193.612 C 136.906 191.434, 136.511 191.544, 128.761 195.800 M 68.763 219.354 C 64.218 223.399, 57.406 230.168, 53.624 234.395 C 49.842 238.622, 46.542 241.876, 46.291 241.624 C 46.040 241.373, 48.178 238.186, 51.042 234.542 C 53.906 230.897, 56.039 227.705, 55.782 227.448 C 55.103 226.770, 41.007 245.317, 36.068 253.388 C 28.888 265.120, 22.890 280.834, 23.102 287.355 C 23.181 289.771, 23.488 289.211, 24.425 284.942 C 26.124 277.199, 30.185 265.996, 31.090 266.555 C 31.503 266.811, 33.274 264.516, 35.025 261.456 C 41.149 250.752, 50.417 239.390, 64.148 225.750 C 71.761 218.188, 77.774 212, 77.508 212 C 77.243 212, 73.308 215.309, 68.763 219.354 M 87.942 213.948 C 84.573 214.970, 80.721 217.055, 81.241 217.574 C 81.467 217.800, 84.768 216.898, 88.576 215.567 C 94.835 213.381, 94.301 212.018, 87.942 213.948 M 557.320 221 C 557.320 224.575, 557.502 226.037, 557.723 224.250 C 557.945 222.463, 557.945 219.537, 557.723 217.750 C 557.502 215.963, 557.320 217.425, 557.320 221 M 65.473 228.250 L 58.500 235.500 65.750 228.527 C 72.484 222.050, 73.457 221, 72.723 221 C 72.571 221, 69.308 224.262, 65.473 228.250 M 78.584 222.997 C 73.909 224.490, 71.326 226.208, 66.259 231.193 C 62.734 234.662, 58.906 238.850, 57.754 240.500 L 55.659 243.500 59.070 240.500 C 60.946 238.850, 62.635 237.162, 62.824 236.750 C 63.012 236.338, 63.663 236, 64.269 236 C 64.875 236, 66.300 235.135, 67.436 234.077 C 68.571 233.019, 73.506 229.644, 78.403 226.577 C 87.911 220.620, 87.942 220.008, 78.584 222.997 M 557.139 231.500 C 556.816 238.616, 553.191 260.306, 551.122 267.500 C 550.015 271.350, 547.730 277.834, 546.046 281.908 C 544.361 285.983, 543.145 289.479, 543.344 289.677 C 544.222 290.555, 551.191 273.283, 553.373 264.823 C 556.082 254.317, 558.421 236.282, 557.759 231 L 557.320 227.500 557.139 231.500 M 359.070 242 C 361.503 245.025, 367.714 251.775, 372.873 257 C 381.720 265.960, 381.584 265.761, 370.478 253.500 C 356.170 237.704, 353.244 234.755, 359.070 242 M 41.231 247.673 C 36.557 254.571, 31 264.290, 31 265.565 C 31 266.062, 32.828 263.341, 35.062 259.518 C 37.296 255.695, 40.701 250.371, 42.630 247.686 C 44.559 245.001, 45.922 242.588, 45.658 242.325 C 45.395 242.061, 43.403 244.468, 41.231 247.673 M 373.500 250 C 376.209 252.750, 378.650 255, 378.925 255 C 379.200 255, 377.209 252.750, 374.500 250 C 371.791 247.250, 369.350 245, 369.075 245 C 368.800 245, 370.791 247.250, 373.500 250 M 380.208 257.854 C 383.674 262.871, 409.909 284, 412.672 284 C 415.668 284, 414.696 281.886, 410.785 279.895 C 403.590 276.231, 392.866 268.575, 385.541 261.870 C 381.713 258.366, 379.313 256.559, 380.208 257.854 M 426.733 289.903 C 430.635 293.467, 445.632 298.768, 447.246 297.154 C 448.893 295.507, 446.517 293.319, 442.214 292.518 C 440.171 292.138, 435.384 290.741, 431.576 289.413 C 427.767 288.086, 424.405 287, 424.103 287 C 423.801 287, 424.985 288.306, 426.733 289.903 M 757.489 308.239 C 750.100 319.637, 734.953 334.987, 721.963 344.240 C 713.706 350.122, 691.315 362.271, 682.500 365.653 C 673.075 369.269, 658.299 373.688, 652.500 374.624 C 650.850 374.890, 648.150 375.528, 646.500 376.042 C 639.602 378.188, 612.822 379.803, 588 379.568 C 573.975 379.436, 562.015 379.695, 561.422 380.143 C 560.829 380.592, 558.923 380.551, 557.186 380.053 C 555.366 379.531, 553.796 379.521, 553.481 380.030 C 553.181 380.515, 552.321 380.677, 551.569 380.388 C 550.817 380.100, 549.937 380.293, 549.612 380.818 C 548.475 382.658, 575.933 385.917, 598.236 386.590 C 618.325 387.197, 634.146 385.450, 653.622 380.475 C 686.793 372.003, 714.873 357.198, 734.085 338.052 C 743.257 328.911, 757.213 311.304, 761.910 302.947 C 765.646 296.299, 763.782 298.530, 757.489 308.239 M 33 323.883 C 33 325.240, 35.812 331, 36.475 331 C 36.903 331, 34.122 323.851, 33.395 323.083 C 33.178 322.854, 33 323.214, 33 323.883 M 517.062 335.749 C 514.714 340.562, 511.263 347.354, 509.394 350.842 C 507.525 354.330, 506.250 357.595, 506.561 358.099 C 506.872 358.602, 506.426 359.283, 505.569 359.612 C 504.712 359.941, 504.257 360.607, 504.557 361.093 C 504.858 361.579, 503.971 363.197, 502.587 364.690 C 501.203 366.182, 500.318 367.650, 500.621 367.952 C 500.924 368.253, 504.396 365.125, 508.336 361 L 515.500 353.500 518.605 340.500 C 520.312 333.350, 521.624 327.387, 521.521 327.249 C 521.417 327.112, 519.411 330.937, 517.062 335.749 M 511.189 355.258 L 508.878 359.500 511.439 356.694 C 512.848 355.151, 514 353.239, 514 352.444 C 514 350.322, 513.731 350.591, 511.189 355.258 M 264.500 377.477 C 261.750 378.184, 260.400 378.773, 261.500 378.785 C 262.600 378.798, 265.750 378.230, 268.500 377.523 C 271.250 376.816, 272.600 376.227, 271.500 376.215 C 270.400 376.202, 267.250 376.770, 264.500 377.477 M 251.500 380 C 248.824 380.681, 248.770 380.763, 251 380.763 C 252.375 380.763, 254.850 380.420, 256.500 380 C 259.176 379.319, 259.230 379.237, 257 379.237 C 255.625 379.237, 253.150 379.580, 251.500 380 M 236.500 382.517 C 232.650 383.202, 230.850 383.795, 232.500 383.835 C 234.150 383.874, 238.425 383.306, 242 382.573 C 250.195 380.891, 245.879 380.847, 236.500 382.517 M 70.236 445.229 C 73.178 447.671, 81 452.331, 81 451.642 C 81 451.412, 77.963 449.363, 74.250 447.090 C 70.537 444.817, 68.731 443.979, 70.236 445.229" stroke="none" fill="#3a2c16" fill-rule="evenodd"/><path d="M 471.500 3.132 C 414.740 10.261, 374.408 35.747, 354.440 77.102 C 352.476 81.171, 351.118 83.689, 351.423 82.698 C 351.728 81.707, 351.567 81.150, 351.065 81.460 C 348.606 82.979, 343.302 109.303, 341.020 131.309 C 338.862 152.118, 345.408 176.743, 358.546 197.245 C 361.103 201.235, 362.494 203.825, 361.637 203 C 360.780 202.175, 357.170 196.654, 353.614 190.732 L 347.149 179.964 345.980 185.595 C 345.337 188.692, 344.975 192.937, 345.174 195.029 C 345.696 200.505, 344.601 199.113, 341.015 189.744 C 323.984 145.239, 330.086 101.934, 358.876 63 C 367.209 51.730, 383.175 36.328, 394 29.116 C 405.216 21.644, 406.505 20.525, 399 24.778 C 378.842 36.200, 359.167 54.370, 346.785 73 C 342.582 79.325, 338.615 85.678, 337.971 87.118 C 336.849 89.625, 336.278 89.789, 324.649 90.949 C 317.967 91.616, 307.587 93.044, 301.582 94.123 C 295.577 95.202, 289.502 95.911, 288.082 95.697 C 286.662 95.484, 286.175 95.528, 287 95.794 C 287.825 96.061, 281.619 97.786, 273.209 99.629 C 233.926 108.235, 188.157 124.394, 152.500 142.246 C 108.079 164.485, 67.877 194.206, 45.481 221.366 C 41.162 226.603, 37.250 230.655, 36.789 230.370 C 34.297 228.829, 63.833 198.918, 81.013 185.584 C 95.307 174.489, 118.156 159.360, 132.278 151.637 C 143.812 145.331, 146.761 143.073, 137.083 147.958 C 106.447 163.423, 73.806 187.142, 51.315 210.282 C 25.947 236.382, 10.362 262.444, 3.309 290.559 C 0.830 300.437, 0.566 303.201, 0.584 319 C 0.601 333.237, 1.016 338.400, 2.809 346.688 C 10.421 381.875, 28.230 411.546, 54.381 432.608 C 66.917 442.705, 86.747 455.488, 96.595 459.821 C 114.924 467.886, 138.726 474.285, 163 477.676 C 180.484 480.118, 226.554 480.122, 247.155 477.683 C 306.752 470.629, 357.728 455.748, 409 430.436 C 444.438 412.941, 459.991 402.663, 497.259 372.109 L 500.176 369.718 513.338 373.842 C 537.083 381.282, 560.961 385.795, 580 386.440 C 586.325 386.654, 589.700 386.641, 587.500 386.409 C 585.300 386.178, 579.225 385.556, 574 385.026 C 558.312 383.435, 548.990 381.824, 549.616 380.812 C 549.938 380.291, 550.817 380.100, 551.569 380.388 C 552.321 380.677, 553.181 380.515, 553.481 380.030 C 553.796 379.521, 555.366 379.531, 557.186 380.053 C 558.923 380.551, 560.829 380.592, 561.422 380.143 C 562.015 379.695, 573.975 379.436, 588 379.568 C 612.822 379.803, 639.602 378.188, 646.500 376.042 C 648.150 375.528, 650.850 374.890, 652.500 374.624 C 658.299 373.688, 673.075 369.269, 682.500 365.653 C 691.337 362.263, 713.708 350.119, 721.945 344.240 C 745.289 327.580, 764.302 303.064, 771.940 279.777 C 777.655 262.353, 780.286 237.042, 778.417 217.487 L 777.558 208.500 776.884 226 C 776.144 245.230, 774.648 252.764, 768.649 267.479 C 758.645 292.018, 735.779 314.980, 708.276 328.107 C 681.034 341.109, 650.145 346.760, 612.082 345.705 C 589.192 345.070, 572.622 342.932, 548.083 337.446 C 539.604 335.551, 532.501 334, 532.298 334 C 532.095 334, 532.406 333.111, 532.987 332.024 C 533.812 330.483, 533.473 328.687, 531.450 323.881 C 529.706 319.739, 529.069 316.859, 529.508 315.108 C 529.868 313.673, 533.214 305.525, 536.945 297 C 540.675 288.475, 544.283 279.782, 544.963 277.683 C 545.643 275.584, 546.379 274.045, 546.598 274.264 C 546.946 274.613, 543.618 285.024, 541.435 290.414 C 540.894 291.751, 541.009 292.112, 541.817 291.613 C 542.648 291.099, 542.734 291.545, 542.122 293.199 C 541.654 294.465, 540.910 295.357, 540.470 295.183 C 539.452 294.779, 535 305.621, 535 308.503 C 535 309.693, 536.518 312.423, 538.373 314.569 L 541.746 318.470 546.746 308.485 C 554.685 292.630, 560.626 273.646, 564.110 253 C 565.931 242.204, 565.623 217.346, 563.545 207.500 C 559.438 188.035, 550.340 167.026, 539.947 153.010 C 531.178 141.182, 517.360 127.242, 507.346 120.119 C 479.998 100.666, 436.257 87.837, 396.429 87.588 C 384.146 87.511, 382.129 87.728, 380.560 89.298 C 379.571 90.286, 379.074 91.408, 379.456 91.789 C 379.838 92.171, 380.589 91.700, 381.125 90.742 C 381.810 89.517, 383.346 89, 386.300 89.001 C 390.449 89.002, 404.508 91.578, 406.255 92.658 C 406.751 92.964, 413.084 93.341, 420.328 93.495 C 442.482 93.966, 463.876 99.468, 486.500 110.514 C 514.753 124.308, 527.069 135.911, 537.589 158.648 C 540.095 164.067, 543.014 170.136, 544.073 172.136 C 546.286 176.313, 546.652 178.764, 544.500 175 C 542.641 171.749, 542.653 173.285, 544.534 179.486 C 545.366 182.229, 546.218 185.379, 546.428 186.486 C 546.638 187.594, 547.576 192.550, 548.514 197.500 C 550.555 208.282, 550.866 229.907, 549.103 238.500 C 543.139 267.566, 524.435 295.820, 491.573 325.401 C 441.400 370.564, 357.197 407.160, 276 419.094 C 263.079 420.993, 220.828 422.993, 222.068 421.647 C 222.380 421.308, 224.405 420.844, 226.568 420.616 C 231.453 420.101, 234.114 419.079, 235.824 417.062 C 236.552 416.203, 236.852 416.081, 236.490 416.790 C 235.674 418.391, 240.697 417.393, 243 415.496 C 243.825 414.817, 245.021 414.451, 245.658 414.683 C 246.295 414.916, 247.110 414.632, 247.467 414.053 C 247.825 413.474, 248.936 413, 249.937 413 C 250.937 413, 252.291 412.354, 252.947 411.564 C 253.602 410.775, 255.457 409.839, 257.069 409.485 C 258.681 409.131, 260 408.400, 260 407.862 C 260 407.323, 260.478 407.178, 261.063 407.539 C 261.648 407.900, 262.885 407.553, 263.813 406.767 C 266.358 404.612, 274.933 399.857, 277.889 398.962 C 279.467 398.485, 273.969 398.083, 264 397.948 L 247.500 397.724 261.500 396.467 C 280.148 394.792, 279.089 395.063, 312 383.531 C 317.775 381.508, 322.950 379.760, 323.500 379.648 C 324.050 379.536, 324.950 379.172, 325.500 378.839 C 326.050 378.507, 328.075 377.908, 330 377.509 C 333.028 376.880, 337.771 375.182, 345.500 371.960 C 347.407 371.164, 351.939 369.689, 353 369.518 C 355.603 369.098, 363 366.414, 363 365.890 C 363 365.316, 364.937 364.584, 369.500 363.435 C 370.050 363.297, 372.185 362.462, 374.245 361.580 C 376.305 360.699, 378.222 359.991, 378.506 360.009 C 378.789 360.026, 380.306 359.376, 381.876 358.564 C 383.446 357.752, 385.852 356.885, 387.223 356.636 C 388.594 356.387, 391.664 355.243, 394.046 354.092 C 396.427 352.941, 398.966 352, 399.688 352 C 400.410 352, 401 351.550, 401 351 C 401 350.450, 401.906 350, 403.014 350 C 404.121 350, 405.809 349.561, 406.764 349.025 C 407.719 348.489, 410.075 347.357, 412 346.510 C 417.608 344.041, 423.435 340.602, 424.300 339.250 C 424.740 338.563, 425.991 338, 427.081 338 C 428.171 338, 429.321 337.328, 429.636 336.506 C 429.952 335.684, 430.544 335.218, 430.953 335.471 C 431.362 335.724, 432.665 335.029, 433.849 333.926 C 435.032 332.824, 436 332.173, 436 332.480 C 436 333.518, 457.285 316.278, 461.745 311.627 C 463.260 310.048, 466.707 306.673, 469.404 304.127 C 475.392 298.476, 479.546 294.219, 483.500 289.684 C 485.150 287.791, 489.425 283.142, 493 279.353 C 499.797 272.149, 505.859 264.906, 507.415 262.131 C 507.918 261.234, 508.614 260.275, 508.963 260 C 509.311 259.725, 510.678 257.925, 512 256 C 513.322 254.075, 514.681 252.275, 515.020 252 C 515.359 251.725, 518.126 247.450, 521.170 242.500 C 536.166 218.110, 542.592 192.895, 538.627 174 C 535.889 160.947, 526.587 144.827, 514.892 132.866 C 502.179 119.862, 478.789 106.143, 462.333 102.038 C 452.412 99.562, 447.187 99.315, 448.920 101.403 C 449.560 102.175, 452.653 104.013, 455.792 105.488 C 473.200 113.667, 485.939 120.222, 487.066 121.579 C 487.769 122.426, 485.604 121.487, 482.255 119.492 C 467.914 110.949, 439.563 100.821, 421 97.608 C 418.379 97.155, 417.877 97.269, 419 98.062 C 420.538 99.148, 418.574 98.969, 410.750 97.311 C 408.962 96.933, 406.892 96.738, 406.150 96.878 C 405.407 97.019, 405.093 96.659, 405.452 96.078 C 405.849 95.435, 405.493 95.257, 404.541 95.623 C 402.642 96.351, 383.097 93.965, 382.455 92.927 C 381.834 91.922, 378 92.998, 378 94.176 C 378 94.694, 377.559 94.846, 377.020 94.513 C 376.402 94.130, 376.480 93.205, 377.233 91.999 C 377.888 90.950, 378.134 89.801, 377.779 89.446 C 376.593 88.260, 370.056 91.113, 368.016 93.707 C 365.339 97.111, 365.468 95.259, 368.366 88.706 C 370.927 82.917, 374.990 79, 378.435 79 C 381.047 79, 383 80.771, 383 83.141 C 383 86.271, 384.511 85.939, 391.052 81.369 C 408.380 69.262, 425.582 62.277, 447.988 58.252 C 460.801 55.950, 465.252 55.636, 486 55.572 C 504.381 55.516, 511.858 55.897, 520.327 57.324 C 542.599 61.075, 564.348 67.357, 589 77.158 C 639.662 97.301, 677.322 127.679, 707.117 172.434 C 723.135 196.496, 730.204 214.513, 733.505 239.700 C 736.251 260.645, 734.762 276.947, 729.042 288.565 C 723.440 299.945, 709.010 311.127, 690.003 318.817 C 685.326 320.709, 681.275 322.477, 681 322.745 C 679.812 323.905, 687.961 321.611, 692.902 319.395 C 695.874 318.062, 698.470 317.137, 698.673 317.340 C 699.409 318.076, 687.260 322.929, 677.500 325.798 C 641.872 336.268, 598.714 335.804, 555.069 324.484 C 547.681 322.568, 541.262 321, 540.804 321 C 540.015 321, 536.012 326.879, 536.004 328.049 C 535.995 329.294, 555.891 334.835, 570 337.517 C 593.243 341.935, 620.147 342.655, 644.500 339.511 C 646.150 339.298, 650.200 338.827, 653.500 338.465 C 656.800 338.102, 662.602 336.911, 666.393 335.818 C 670.185 334.725, 674.010 333.688, 674.893 333.514 C 680.047 332.500, 689.858 329.629, 692 328.508 C 693.375 327.788, 697.425 325.998, 701 324.530 C 708.701 321.367, 712.316 319.695, 713 318.981 C 713.275 318.694, 714.625 317.888, 716 317.190 C 734.170 307.965, 753.155 288.824, 762.309 270.500 C 766.143 262.825, 770.505 251.920, 771.310 248 C 771.592 246.625, 772.084 244.375, 772.402 243 C 773.518 238.189, 774.893 220.459, 774.497 216 C 774.277 213.525, 773.823 208.575, 773.488 205 C 772.723 196.822, 767.901 178.320, 763.930 168.323 C 748.366 129.144, 720.309 94.351, 680 64.244 C 664.944 52.999, 650.946 44.586, 630.500 34.494 C 596.160 17.545, 564.587 7.981, 528.460 3.586 C 514.343 1.869, 483.514 1.623, 471.500 3.132 M 472.301 10.492 C 451.510 13.670, 429.569 20.908, 415.545 29.214 C 411.719 31.480, 408.032 33.333, 407.350 33.333 C 406.669 33.333, 406.199 33.821, 406.306 34.417 C 406.412 35.012, 405.730 35.440, 404.789 35.368 C 403.848 35.295, 403.173 35.745, 403.289 36.368 C 403.405 36.990, 402.773 37.507, 401.886 37.515 C 399.643 37.536, 396.885 40.005, 397.675 41.283 C 398.075 41.931, 397.715 42.104, 396.743 41.732 C 394.444 40.849, 378.785 57.276, 379.686 59.624 C 380.124 60.765, 379.960 61.093, 379.188 60.616 C 377.738 59.720, 370.621 70.577, 371.609 72.177 C 372.013 72.830, 371.865 73.034, 371.259 72.660 C 369.979 71.869, 368.735 74.728, 369.657 76.340 C 370.022 76.978, 369.940 77.154, 369.475 76.731 C 368.491 75.837, 363.771 86.820, 364.577 88.125 C 364.875 88.606, 364.681 89, 364.147 89 C 363.613 89, 362.858 90.912, 362.470 93.250 C 362.082 95.588, 361.562 98.400, 361.314 99.500 C 359.774 106.348, 359.505 110.075, 359.548 124 C 359.617 146.777, 364.012 164.271, 375.379 187.022 C 381.647 199.566, 390.857 214.206, 392.027 213.483 C 392.486 213.200, 393.187 213.494, 393.585 214.138 C 394.063 214.912, 393.873 215.040, 393.025 214.515 C 392.163 213.983, 391.907 214.179, 392.245 215.111 C 392.523 215.875, 393.214 216.402, 393.780 216.282 C 394.683 216.090, 398.221 220.094, 400.380 223.750 C 402.078 226.625, 400.060 224.695, 397.487 220.982 C 395.956 218.772, 394.500 217.167, 394.251 217.416 C 393.531 218.136, 400.202 225.993, 401.075 225.454 C 402.106 224.817, 405.076 229.067, 404.384 230.188 C 404.091 230.662, 404.262 230.926, 404.764 230.775 C 405.267 230.624, 410.106 235.150, 415.519 240.833 C 429.344 255.348, 451.441 273.549, 464.746 281.380 C 465.543 281.849, 469.639 278.578, 476.109 272.306 C 493.862 255.099, 503.965 241.624, 512.490 223.783 C 519.250 209.636, 519.297 210.385, 511.200 202.907 C 486.762 180.339, 443.620 166.883, 390.655 165.308 C 375.358 164.853, 369.620 164.996, 369.095 165.846 C 367.996 167.624, 363.756 152.254, 361.964 140 C 357.185 107.312, 366.929 75.998, 389.202 52.468 C 399.329 41.769, 407.701 35.492, 421 28.625 C 445.970 15.732, 474.342 10.158, 509 11.338 C 552.128 12.805, 594.669 24.887, 627.655 45.037 C 652.800 60.397, 672.277 74.760, 688.364 89.806 C 701.848 102.418, 704.299 104.145, 693.269 93.262 C 681.701 81.849, 667.059 69.601, 653.500 59.997 C 631.650 44.521, 631.585 44.469, 637.750 47.474 C 644.077 50.559, 644.620 50.139, 638.750 46.701 C 611.141 30.534, 576.077 18.077, 541 11.974 C 524.769 9.150, 486.483 8.324, 472.301 10.492 M 482.768 14.725 C 484.565 14.947, 487.265 14.943, 488.768 14.715 C 490.271 14.486, 488.800 14.304, 485.500 14.310 C 482.200 14.315, 480.971 14.502, 482.768 14.725 M 505.750 14.706 C 506.988 14.944, 509.012 14.944, 510.250 14.706 C 511.488 14.467, 510.475 14.272, 508 14.272 C 505.525 14.272, 504.512 14.467, 505.750 14.706 M 480 16.529 C 479.175 16.692, 474.538 17.365, 469.695 18.024 C 464.852 18.684, 461.093 19.426, 461.340 19.674 C 461.588 19.921, 465.550 19.586, 470.145 18.929 C 474.740 18.272, 486.375 17.419, 496 17.033 L 513.500 16.331 497.500 16.282 C 488.700 16.254, 480.825 16.366, 480 16.529 M 517.750 17.706 C 518.987 17.944, 521.013 17.944, 522.250 17.706 C 523.487 17.467, 522.475 17.272, 520 17.272 C 517.525 17.272, 516.513 17.467, 517.750 17.706 M 536.500 18.057 C 541.566 19.105, 545.659 19.058, 541.500 18 C 539.850 17.580, 537.150 17.235, 535.500 17.233 C 532.978 17.231, 533.137 17.362, 536.500 18.057 M 558.500 24.570 C 561.250 25.335, 563.950 25.923, 564.500 25.876 C 566.192 25.731, 557.629 23.153, 555.500 23.166 C 554.400 23.173, 555.750 23.805, 558.500 24.570 M 565 23.913 C 566.375 24.402, 573.125 26.616, 580 28.832 C 586.875 31.048, 594.300 33.652, 596.500 34.620 C 598.700 35.587, 600.725 36.425, 601 36.481 C 601.275 36.538, 602.976 37.371, 604.779 38.333 C 606.583 39.295, 608.496 39.812, 609.029 39.482 C 609.563 39.152, 610 39.334, 610 39.887 C 610 40.440, 612.714 41.882, 616.031 43.091 C 619.348 44.301, 622.299 45.675, 622.590 46.145 C 622.880 46.615, 623.758 47, 624.540 47 C 625.321 47, 628.423 48.575, 631.433 50.500 C 634.442 52.425, 637.263 53.988, 637.702 53.974 C 640.478 53.885, 619.053 42, 616.117 42 C 615.044 42, 614.013 41.539, 613.825 40.976 C 613.134 38.901, 575.378 25.195, 566 23.614 C 563.184 23.139, 562.989 23.197, 565 23.913 M 389.433 48.250 C 384.013 53.887, 377.367 61.659, 381.095 58 C 385.266 53.907, 396.273 42, 395.885 42 C 395.642 42, 392.738 44.813, 389.433 48.250 M 383.340 78.783 C 384.584 80.184, 384.954 81.569, 384.483 83.054 C 384.010 84.543, 384.142 85.030, 384.893 84.566 C 386.860 83.350, 386.140 79.144, 383.750 77.890 C 381.534 76.727, 381.528 76.740, 383.340 78.783 M 367.783 98.750 C 366.944 99.713, 365.684 101.625, 364.983 103 C 363.763 105.394, 363.789 105.432, 365.604 103.902 C 366.647 103.023, 368.288 102.025, 369.250 101.683 C 370.212 101.342, 371 100.149, 371 99.031 C 371 96.537, 369.805 96.432, 367.783 98.750 M 692.090 104.250 C 693.877 106.862, 695.504 109, 695.705 109 C 696.384 109, 694.116 105.519, 691.470 102.500 C 689.480 100.229, 689.630 100.655, 692.090 104.250 M 368.580 104.870 C 368.107 105.636, 369.271 106.051, 372.191 106.157 L 376.500 106.314 371.500 107.032 C 368.740 107.428, 378.371 107.743, 393 107.734 C 420.525 107.717, 427.141 108.354, 448.228 113.051 C 460.105 115.696, 462.155 114.075, 450.821 111 C 435.891 106.949, 418.114 104.892, 392.890 104.297 C 375.875 103.895, 369.084 104.055, 368.580 104.870 M 393.750 106.732 C 396.087 106.943, 399.913 106.943, 402.250 106.732 C 404.587 106.522, 402.675 106.349, 398 106.349 C 393.325 106.349, 391.413 106.522, 393.750 106.732 M 267 109.598 C 261.775 110.954, 254.800 112.738, 251.500 113.563 C 214.523 122.803, 168.671 141.426, 136.706 160.186 C 134.069 161.734, 131.685 163, 131.407 163 C 131.129 163, 128.337 164.722, 125.201 166.826 C 122.066 168.930, 113.650 174.536, 106.500 179.284 C 88.226 191.420, 78.458 199.402, 63.487 214.434 C 48.184 229.799, 40.630 239.916, 31.703 257 C 22.605 274.414, 20.420 282.106, 19.591 299.652 C 18.845 315.417, 19.506 319.753, 24.177 329.744 C 37.180 357.557, 74.013 378.025, 124.387 385.431 C 151.651 389.439, 187.451 389.580, 219 385.802 C 227.960 384.729, 228.913 384.452, 225.500 383.914 C 222.039 383.369, 221.909 383.265, 224.532 383.142 C 229.346 382.917, 259.189 377.489, 274.393 374.074 C 282.035 372.358, 288.477 371.144, 288.709 371.376 C 288.942 371.608, 285.674 372.614, 281.448 373.610 C 277.222 374.606, 274.242 375.581, 274.825 375.775 C 276.600 376.367, 306.343 368.273, 323.749 362.461 C 415.028 331.987, 490.450 278.147, 517.013 224.500 C 525.275 207.812, 527.435 199.553, 527.471 184.500 C 527.494 174.821, 527.071 171.146, 525.282 165.500 C 523.258 159.111, 516.147 145.519, 515.282 146.385 C 515.082 146.585, 515.856 148.336, 517.001 150.277 C 520.449 156.121, 526.029 174.238, 523.076 170 C 521.580 167.854, 521.758 169.827, 523.623 176.068 C 527.351 188.546, 522.657 210.917, 512.339 229.847 C 499.039 254.249, 472.542 281.404, 439.522 304.477 C 422.543 316.340, 408.867 324.220, 385.750 335.459 C 365.768 345.174, 336.298 357.631, 335.406 356.739 C 335.184 356.518, 339.390 354.617, 344.752 352.516 C 363.442 345.190, 381.606 336.883, 396.754 328.731 C 405.143 324.217, 411.893 320.262, 411.754 319.944 C 411.614 319.625, 407.900 316.198, 403.500 312.328 C 384.353 295.487, 365.685 273.971, 354.324 255.651 C 347.346 244.398, 337.200 223.415, 333.179 211.921 C 329.925 202.622, 325.540 183.949, 324.452 174.760 C 323.837 169.565, 323.569 169.064, 321.636 169.490 C 320.461 169.750, 311.400 171.553, 301.500 173.499 C 264.577 180.754, 226.034 193.683, 188.406 211.435 C 166.139 221.940, 135.590 241.789, 113 260.430 C 104.240 267.658, 86.614 285.624, 79.238 294.844 C 64.250 313.576, 56.510 329.037, 53.445 346.362 C 52.080 354.079, 52.095 354.260, 54.277 356.198 C 55.947 357.682, 55.630 357.604, 53 355.884 C 47.011 351.966, 36.239 341.007, 32.092 334.613 C 25.910 325.083, 22.916 314.805, 22.472 301.592 C 22.266 295.475, 22.426 292.070, 22.828 294 C 23.497 297.214, 23.665 296.852, 24.880 289.572 C 25.607 285.212, 26.770 279.760, 27.463 277.456 C 28.777 273.091, 40.888 253.555, 41.748 254.415 C 42.019 254.685, 45.740 250.090, 50.017 244.203 C 54.295 238.316, 62.541 228.805, 68.343 223.067 C 74.145 217.328, 78.689 212.305, 78.441 211.904 C 78.193 211.502, 81.929 208.138, 86.745 204.427 C 97.757 195.939, 97.335 196.325, 96.316 195.695 C 95.251 195.037, 78.630 207.412, 68.951 216.068 C 60.913 223.256, 57.677 225.174, 62.946 219.628 C 67.712 214.610, 65.579 215.062, 60.038 220.243 C 57.542 222.577, 58.650 221.194, 62.500 217.170 C 83.490 195.232, 110.002 176.362, 139.238 162.553 C 150.830 157.077, 156.885 154.807, 154 157.019 C 152.797 157.940, 153.095 158.066, 155.500 157.654 C 157.150 157.371, 159.400 156.857, 160.500 156.511 C 161.600 156.165, 160.813 156.820, 158.750 157.965 C 156.688 159.111, 155 160.214, 155 160.418 C 155 161.056, 181.196 150.355, 187.557 147.118 C 194.564 143.554, 238.984 128.675, 259.500 123.020 C 272.938 119.317, 282.388 116.219, 280.699 116.070 C 277.621 115.800, 228.475 129.605, 224.010 131.995 C 222.783 132.651, 218.791 134.028, 215.139 135.054 C 205.905 137.649, 182.839 146.642, 182.020 147.968 C 181.249 149.215, 170.983 153.316, 170.311 152.645 C 170.069 152.402, 172.153 151.446, 174.943 150.519 C 177.733 149.592, 179.781 148.455, 179.495 147.992 C 179.209 147.529, 185.843 144.472, 194.238 141.197 C 228.650 127.774, 259.864 118.531, 299 110.175 C 301.475 109.647, 302.600 109.177, 301.500 109.132 C 300.400 109.086, 297.475 109.528, 295 110.114 C 290.897 111.085, 268 112.234, 268 111.468 C 268 111.289, 270.475 110.422, 273.500 109.543 C 276.525 108.664, 279 107.732, 279 107.472 C 279 106.663, 276.811 107.051, 267 109.598 M 367.500 112.936 C 365.850 113.321, 375.750 113.933, 389.500 114.295 C 403.250 114.658, 416.300 115.243, 418.500 115.597 C 420.700 115.951, 422.196 115.919, 421.824 115.527 C 419.293 112.859, 376.568 110.821, 367.500 112.936 M 721.226 128 C 727.800 137.370, 732 144.794, 732 147.044 C 732 148.120, 732.648 149, 733.441 149 C 736.070 149, 736.287 146.811, 733.873 144.641 C 732.564 143.463, 730.668 140.716, 729.660 138.535 C 728.652 136.354, 726.462 132.846, 724.793 130.739 C 720.827 125.731, 721.829 124.756, 725.885 129.676 C 727.598 131.755, 729 132.991, 729 132.424 C 729 131.857, 727.425 129.866, 725.500 128 C 723.575 126.134, 722 124.999, 722 125.478 C 722 125.957, 720.800 125.258, 719.333 123.924 C 717.466 122.227, 718.034 123.450, 721.226 128 M 325.511 145.092 C 326.076 164.955, 331.275 187.331, 338.385 200.500 C 343.035 209.112, 353.228 226.023, 354.090 226.556 C 354.590 226.865, 355 227.597, 355 228.181 C 355 228.812, 354.304 228.687, 353.289 227.872 C 352.155 226.962, 352.346 227.595, 353.857 229.750 C 355.111 231.537, 356.421 233, 356.768 233 C 357.116 233, 356.860 232.460, 356.200 231.800 C 354.171 229.771, 354.874 228.576, 356.976 230.478 C 358.063 231.462, 356.303 228.269, 353.066 223.383 C 337.064 199.232, 328.033 172.787, 326.018 144.183 L 325.125 131.500 325.511 145.092 M 201 148.903 C 188.328 153.619, 188 153.801, 188 156.090 C 188 158.204, 188.033 158.208, 190.750 156.388 C 192.262 155.375, 197.325 152.632, 202 150.292 C 211.838 145.368, 211.555 144.975, 201 148.903 M 739.692 150.452 C 741.436 153.307, 741.435 153.381, 739.654 152.698 C 732.642 150.007, 732.649 149.962, 738.131 161.582 C 751.652 190.248, 756.904 208.237, 757.668 228.500 C 758.285 244.859, 756.993 252.708, 751.650 265.067 C 749.764 269.430, 748.418 273, 748.659 273 C 749.918 273, 756.329 257.195, 758.600 248.491 C 760.809 240.027, 761.216 236.283, 761.265 224 C 761.347 203.213, 756.701 184.311, 746.531 164.062 C 744.004 159.030, 742.149 154.569, 742.408 154.148 C 742.668 153.728, 741.758 152.060, 740.385 150.442 L 737.889 147.500 739.692 150.452 M 168.750 159.689 C 167.787 159.941, 167 160.612, 167 161.180 C 167 161.752, 167.782 161.916, 168.750 161.548 C 170.002 161.071, 170.195 161.189, 169.427 161.964 C 167.748 163.657, 164.112 164.016, 163.266 162.572 C 162.763 161.715, 161.812 161.540, 160.500 162.062 C 158.887 162.705, 158.827 162.873, 160.191 162.930 C 163.057 163.049, 163.069 164.629, 160.216 166.072 C 153.073 169.683, 127.934 183.703, 123.026 186.813 C 114.414 192.269, 92.994 207.327, 93.344 207.678 C 94.557 208.890, 124.301 194.186, 138.065 185.570 C 142.154 183.010, 144.375 181.871, 143 183.040 C 141.625 184.209, 138.700 186.750, 136.500 188.687 L 132.500 192.209 135.907 190.498 C 137.781 189.556, 142.281 186.981, 145.907 184.774 C 149.533 182.568, 152.907 180.521, 153.405 180.227 C 153.902 179.932, 153.988 180.211, 153.595 180.845 C 153.203 181.480, 153.332 182, 153.882 182 C 154.432 182, 155.165 181.543, 155.510 180.984 C 155.856 180.425, 156.627 180.269, 157.224 180.638 C 157.877 181.042, 158.021 180.843, 157.585 180.138 C 157.187 179.494, 156.330 179.266, 155.681 179.630 C 153.295 180.970, 156.554 178.316, 161.854 174.604 C 164.799 172.541, 166.910 171.336, 166.545 171.927 C 165.436 173.721, 166.952 173.138, 170.567 170.381 C 172.455 168.941, 174 168.038, 174 168.375 C 174 169.625, 165.713 174.940, 164.721 174.327 C 164.154 173.977, 163.981 174.160, 164.335 174.733 C 164.695 175.316, 164.213 175.714, 163.239 175.637 C 162.246 175.559, 161.625 176.089, 161.791 176.873 C 161.963 177.684, 161.520 178.030, 160.708 177.718 C 159.952 177.428, 159.333 177.798, 159.333 178.541 C 159.333 179.549, 159.807 179.639, 161.195 178.896 C 162.218 178.348, 162.809 177.499, 162.506 177.010 C 162.204 176.521, 162.754 176.181, 163.728 176.254 C 164.703 176.327, 168.664 174.086, 172.531 171.272 C 179.630 166.109, 181.275 163.242, 178.831 160.296 C 177.799 159.053, 172.423 158.729, 168.750 159.689 M 141.387 169.410 C 137.474 171.246, 133.900 173.368, 133.445 174.124 C 132.771 175.243, 132.900 175.270, 134.139 174.268 C 134.977 173.590, 139.001 171.482, 143.081 169.583 C 147.162 167.684, 150.050 166.117, 149.500 166.101 C 148.950 166.085, 145.299 167.574, 141.387 169.410 M 166.500 178.077 C 154.838 183.856, 146 187.926, 146 187.519 C 146 187.323, 147.599 186.175, 149.553 184.967 C 151.507 183.760, 152.919 182.586, 152.692 182.359 C 151.886 181.552, 137.616 191.007, 137.398 192.491 C 137.085 194.626, 137.414 194.513, 146.105 189.500 C 153.767 185.081, 158.265 183.492, 154.441 186.555 C 152.582 188.045, 152.596 188.064, 154.778 187.005 C 156.031 186.397, 156.809 185.499, 156.506 185.010 C 156.204 184.521, 156.754 184.181, 157.729 184.255 C 159.079 184.356, 173.490 176.524, 175.917 174.370 C 177.342 173.105, 173.413 174.651, 166.500 178.077 M 546.083 178.080 C 546.037 178.399, 547.106 181.324, 548.458 184.580 C 549.809 187.836, 550.907 189.825, 550.896 189 C 550.877 187.502, 546.241 176.982, 546.083 178.080 M 92.307 193.357 C 79.414 203.033, 68.766 212.100, 69.471 212.804 C 69.739 213.073, 71.881 211.533, 74.230 209.383 C 76.578 207.233, 84.237 201.070, 91.250 195.689 C 102.405 187.128, 104.888 185, 103.722 185 C 103.569 185, 98.432 188.761, 92.307 193.357 M 128.761 195.800 C 124.886 197.927, 122.211 200.018, 122.467 200.718 C 122.712 201.388, 122.482 202.202, 121.956 202.527 C 121.430 202.852, 121 202.636, 121 202.046 C 121 201.457, 117.845 202.564, 113.989 204.506 C 110.132 206.448, 104.476 208.972, 101.420 210.116 C 98.363 211.260, 96.049 212.383, 96.278 212.611 C 96.632 212.965, 108.279 209.013, 114.414 206.457 C 115.906 205.836, 116.146 205.973, 115.504 207.080 C 115.015 207.922, 115.050 208.161, 115.590 207.667 C 116.090 207.208, 116.500 206.346, 116.500 205.750 C 116.500 205.154, 117.125 204.458, 117.889 204.204 C 118.811 203.896, 119.013 204.170, 118.490 205.016 C 118.057 205.717, 119.682 205.111, 122.101 203.668 C 124.520 202.225, 126.500 200.622, 126.500 200.106 C 126.500 199.589, 126.910 198.792, 127.410 198.333 C 127.939 197.849, 128.019 198.024, 127.601 198.750 C 126.723 200.276, 127.500 200.338, 130.094 198.950 C 131.173 198.372, 131.749 197.403, 131.373 196.795 C 130.963 196.132, 131.149 195.974, 131.838 196.400 C 133.367 197.345, 136.290 195.628, 136.586 193.612 C 136.906 191.434, 136.511 191.544, 128.761 195.800 M 68.763 219.354 C 64.218 223.399, 57.406 230.168, 53.624 234.395 C 49.842 238.622, 46.542 241.876, 46.291 241.624 C 46.040 241.373, 48.178 238.186, 51.042 234.542 C 53.906 230.897, 56.039 227.705, 55.782 227.448 C 55.103 226.770, 41.007 245.317, 36.068 253.388 C 28.888 265.120, 22.890 280.834, 23.102 287.355 C 23.181 289.771, 23.488 289.211, 24.425 284.942 C 26.124 277.199, 30.185 265.996, 31.090 266.555 C 31.503 266.811, 33.274 264.516, 35.025 261.456 C 41.149 250.752, 50.417 239.390, 64.148 225.750 C 71.761 218.188, 77.774 212, 77.508 212 C 77.243 212, 73.308 215.309, 68.763 219.354 M 87.942 213.948 C 84.573 214.970, 80.721 217.055, 81.241 217.574 C 81.467 217.800, 84.768 216.898, 88.576 215.567 C 94.835 213.381, 94.301 212.018, 87.942 213.948 M 557.320 221 C 557.320 224.575, 557.502 226.037, 557.723 224.250 C 557.945 222.463, 557.945 219.537, 557.723 217.750 C 557.502 215.963, 557.320 217.425, 557.320 221 M 65.473 228.250 L 58.500 235.500 65.750 228.527 C 72.484 222.050, 73.457 221, 72.723 221 C 72.571 221, 69.308 224.262, 65.473 228.250 M 78.584 222.997 C 73.909 224.490, 71.326 226.208, 66.259 231.193 C 62.734 234.662, 58.906 238.850, 57.754 240.500 L 55.659 243.500 59.070 240.500 C 60.946 238.850, 62.635 237.162, 62.824 236.750 C 63.012 236.338, 63.663 236, 64.269 236 C 64.875 236, 66.300 235.135, 67.436 234.077 C 68.571 233.019, 73.506 229.644, 78.403 226.577 C 87.911 220.620, 87.942 220.008, 78.584 222.997 M 557.139 231.500 C 556.816 238.616, 553.191 260.306, 551.122 267.500 C 550.015 271.350, 547.730 277.834, 546.046 281.908 C 544.361 285.983, 543.145 289.479, 543.344 289.677 C 544.222 290.555, 551.191 273.283, 553.373 264.823 C 556.082 254.317, 558.421 236.282, 557.759 231 L 557.320 227.500 557.139 231.500 M 29.023 239.126 C 11.670 265.069, 3.047 292.776, 5.916 313.367 C 8.230 329.970, 15.296 344.098, 27.865 357.254 C 32.826 362.446, 37.461 366.213, 41.230 368.116 C 44.403 369.718, 47 370.872, 47 370.681 C 47 370.489, 44.533 368.633, 41.518 366.557 C 34.187 361.508, 23.627 350.172, 20.492 343.985 C 10.041 323.360, 7.171 294.874, 13.414 273.728 C 16.368 263.724, 25.578 244.621, 27.018 245.511 C 27.557 245.844, 27.709 245.406, 27.366 244.511 C 26.969 243.478, 27.237 243.020, 28.127 243.209 C 28.959 243.385, 29.383 242.804, 29.203 241.734 C 29.039 240.763, 29.333 240.088, 29.857 240.234 C 31.415 240.669, 37.312 231.912, 36.206 230.806 C 35.580 230.180, 33.034 233.130, 29.023 239.126 M 359.070 242 C 361.503 245.025, 367.714 251.775, 372.873 257 C 381.720 265.960, 381.584 265.761, 370.478 253.500 C 356.170 237.704, 353.244 234.755, 359.070 242 M 41.231 247.673 C 36.557 254.571, 31 264.290, 31 265.565 C 31 266.062, 32.828 263.341, 35.062 259.518 C 37.296 255.695, 40.701 250.371, 42.630 247.686 C 44.559 245.001, 45.922 242.588, 45.658 242.325 C 45.395 242.061, 43.403 244.468, 41.231 247.673 M 373.500 250 C 376.209 252.750, 378.650 255, 378.925 255 C 379.200 255, 377.209 252.750, 374.500 250 C 371.791 247.250, 369.350 245, 369.075 245 C 368.800 245, 370.791 247.250, 373.500 250 M 380.208 257.854 C 383.674 262.871, 409.909 284, 412.672 284 C 415.668 284, 414.696 281.886, 410.785 279.895 C 403.590 276.231, 392.866 268.575, 385.541 261.870 C 381.713 258.366, 379.313 256.559, 380.208 257.854 M 426.733 289.903 C 430.635 293.467, 445.632 298.768, 447.246 297.154 C 448.893 295.507, 446.517 293.319, 442.214 292.518 C 440.171 292.138, 435.384 290.741, 431.576 289.413 C 427.767 288.086, 424.405 287, 424.103 287 C 423.801 287, 424.985 288.306, 426.733 289.903 M 557.928 323.587 C 560.364 324.351, 563.964 325.201, 565.928 325.476 C 567.893 325.752, 566.350 325.092, 562.500 324.011 C 554.571 321.785, 551.182 321.470, 557.928 323.587 M 33 323.883 C 33 325.240, 35.812 331, 36.475 331 C 36.903 331, 34.122 323.851, 33.395 323.083 C 33.178 322.854, 33 323.214, 33 323.883 M 517.062 335.749 C 514.714 340.562, 511.263 347.354, 509.394 350.842 C 507.525 354.330, 506.250 357.595, 506.561 358.099 C 506.872 358.602, 506.426 359.283, 505.569 359.612 C 504.712 359.941, 504.257 360.607, 504.557 361.093 C 504.858 361.579, 503.971 363.197, 502.587 364.690 C 501.203 366.182, 500.318 367.650, 500.621 367.952 C 500.924 368.253, 504.396 365.125, 508.336 361 L 515.500 353.500 518.605 340.500 C 520.312 333.350, 521.624 327.387, 521.521 327.249 C 521.417 327.112, 519.411 330.937, 517.062 335.749 M 596.768 330.725 C 598.565 330.947, 601.265 330.943, 602.768 330.715 C 604.271 330.486, 602.800 330.304, 599.500 330.310 C 596.200 330.315, 594.971 330.502, 596.768 330.725 M 612.206 331.741 C 615.895 331.932, 622.195 331.934, 626.206 331.743 C 630.218 331.553, 627.200 331.396, 619.500 331.395 C 611.800 331.393, 608.518 331.549, 612.206 331.741 M 511.189 355.258 L 508.878 359.500 511.439 356.694 C 512.848 355.151, 514 353.239, 514 352.444 C 514 350.322, 513.731 350.591, 511.189 355.258 M 325.188 359.683 C 322.816 360.522, 321.052 361.385, 321.268 361.601 C 321.724 362.058, 331 359.012, 331 358.406 C 331 357.780, 329.862 358.030, 325.188 359.683 M 65 363.617 C 65 364.298, 81.981 372.355, 82.433 371.888 C 82.640 371.675, 78.802 369.619, 73.905 367.321 C 69.007 365.022, 65 363.355, 65 363.617 M 293.500 369.538 C 289.556 370.902, 289.549 370.913, 293 370.331 C 297.079 369.643, 301.250 368.120, 299 368.140 C 298.175 368.148, 295.700 368.776, 293.500 369.538 M 84 372.311 C 84 373.173, 98.750 377.780, 110 380.433 C 130.303 385.220, 139.768 386.167, 170.500 386.484 L 199.500 386.784 172.500 386.003 C 145.376 385.218, 129.196 383.586, 112.564 379.957 C 104.849 378.274, 90.169 374.153, 85.490 372.358 C 84.671 372.043, 84 372.022, 84 372.311 M 264.500 377.477 C 261.750 378.184, 260.400 378.773, 261.500 378.785 C 262.600 378.798, 265.750 378.230, 268.500 377.523 C 271.250 376.816, 272.600 376.227, 271.500 376.215 C 270.400 376.202, 267.250 376.770, 264.500 377.477 M 251.500 380 C 248.824 380.681, 248.770 380.763, 251 380.763 C 252.375 380.763, 254.850 380.420, 256.500 380 C 259.176 379.319, 259.230 379.237, 257 379.237 C 255.625 379.237, 253.150 379.580, 251.500 380 M 236.500 382.517 C 232.650 383.202, 230.850 383.795, 232.500 383.835 C 234.150 383.874, 238.425 383.306, 242 382.573 C 250.195 380.891, 245.879 380.847, 236.500 382.517 M 204.250 385.716 C 205.762 385.945, 208.238 385.945, 209.750 385.716 C 211.262 385.487, 210.025 385.300, 207 385.300 C 203.975 385.300, 202.738 385.487, 204.250 385.716" stroke="none" fill="#e1bd7a" fill-rule="evenodd"/></svg>